# xmcd
#
# Track frame offsets: 
#        150
#        12348
#        26779
#        41537
#        56800
#        69803
#        78795
#        95079
#        108066
#        125734
#        139576
#        156875
#
# Disc length: 2306 seconds
#
# Revision: 0
# Processed by: cddbd v1.5.2PL0 Copyright (c) Steve Scherf et al.
# Submitted via: ExactAudioCopy v1.0b3
#
DISCID=9709000c
DTITLE=Highwaymen - Highwaymen {5-CD Box} [CD 1: The Highwayman)
DYEAR=2008
DGENRE=Country
TTITLE0=Johnny Cash - The Highwayman
TTITLE1=Waylon Jennings - Love Of The Common People
TTITLE2=Kris Kristofferson - Out Of Mind, Out Of Sight
TTITLE3=Willie Nelson - Face Of A Fighter
TTITLE4=Johnny Cash - Folsom Prison Blues
TTITLE5=Waylon Jennings - Love's Gonna Live Here
TTITLE6=Willie Nelson - Always On My Mind
TTITLE7=Johnny Cash - Ring Of Fire
TTITLE8=Kris Kristofferson - Casey's Last Ride
TTITLE9=Willie Nelson - The Last Letter
TTITLE10=Johnny Cash - Sunday Morning Coming Down
TTITLE11=Willie Nelson - Stardust
EXTD=
EXTT0=
EXTT1=
EXTT2=
EXTT3=
EXTT4=
EXTT5=
EXTT6=
EXTT7=
EXTT8=
EXTT9=
EXTT10=
EXTT11=
PLAYORDER=
